<svg id="Logo" xmlns="http://www.w3.org/2000/svg" xmlns:xlink="http://www.w3.org/1999/xlink" width="274.688" height="50.469" viewBox="0 0 274.688 50.469">
  <defs>
    <style>
      .cls-1 {
        fill-rule: evenodd;
      }

      .cls-2 {
        filter: url(#filter);
      }
    </style>
    <filter id="filter" x="36" y="5.5" width="31" height="31" filterUnits="userSpaceOnUse">
      <feFlood result="flood" flood-color="#b0b0b0"/>
      <feComposite result="composite" operator="in" in2="SourceGraphic"/>
      <feBlend result="blend" in2="SourceGraphic"/>
    </filter>
  </defs>
  <path id="wepps" class="cls-1" d="M137.234,18.281h-7.769L127.32,38.391l-0.668,5.66L125,38.953,121.168,28.16h-6.539l-3.586,10.863L109.6,43.981l-0.6-5.52-2.566-20.18H98.281L103.344,54h9.562l3.657-11.215,1.16-4.043,1.16,3.938L122.68,54h9.527ZM172.566,27a14.076,14.076,0,0,0-2.988-5.027,13.472,13.472,0,0,0-4.887-3.287,17.837,17.837,0,0,0-6.714-1.178,16.856,16.856,0,0,0-6.944,1.389,14.819,14.819,0,0,0-5.291,3.938,18.184,18.184,0,0,0-3.375,6.117,24.851,24.851,0,0,0-1.195,7.928,22.909,22.909,0,0,0,1.195,7.734,14.993,14.993,0,0,0,3.446,5.607,14.479,14.479,0,0,0,5.484,3.428,21.559,21.559,0,0,0,7.312,1.16q1.617,0,3.34-.123t3.41-.369q1.688-.246,3.3-0.562t2.988-.7v-6.82a44.062,44.062,0,0,1-6.17,1.318,41.412,41.412,0,0,1-5.572.4,12.571,12.571,0,0,1-4.1-.633,8.846,8.846,0,0,1-3.164-1.846,8.135,8.135,0,0,1-2.039-3.006,11.076,11.076,0,0,1-.72-4.148h23.484q0.1-1.23.158-2.637t0.053-2.285A19.275,19.275,0,0,0,172.566,27Zm-22.535,5.168a9.928,9.928,0,0,1,2.461-6.1,7.035,7.035,0,0,1,5.309-2.162,7.65,7.65,0,0,1,2.76.492,6.073,6.073,0,0,1,2.25,1.512,7.285,7.285,0,0,1,1.529,2.584,10.375,10.375,0,0,1,.527,3.674H150.031Zm63.282-4.131a17.255,17.255,0,0,0-2.549-5.66,11.492,11.492,0,0,0-4.131-3.6,12.127,12.127,0,0,0-5.625-1.266,13.788,13.788,0,0,0-3.551.422,12.128,12.128,0,0,0-2.953,1.213,13.32,13.32,0,0,0-2.549,1.916,24.673,24.673,0,0,0-2.267,2.5l-0.211-5.273h-7.418V67.957h8.578V54a21.369,21.369,0,0,0,5.1.633,22.789,22.789,0,0,0,7.348-1.143,15.563,15.563,0,0,0,5.854-3.516,16.215,16.215,0,0,0,3.867-5.959,23.552,23.552,0,0,0,1.388-8.508A29.286,29.286,0,0,0,213.313,28.037Zm-8.754,12.832a11.223,11.223,0,0,1-1.811,3.779,8.188,8.188,0,0,1-2.848,2.391,8.106,8.106,0,0,1-3.709.844,18.656,18.656,0,0,1-3.041-.246A13.185,13.185,0,0,1,190.637,47V31.395a30.329,30.329,0,0,1,4.2-4.781A6.225,6.225,0,0,1,199,24.856a5.443,5.443,0,0,1,2.619.615,5.08,5.08,0,0,1,1.934,1.951,11.045,11.045,0,0,1,1.213,3.41,25.68,25.68,0,0,1,.421,5.027A18.4,18.4,0,0,1,204.559,40.869ZM252.9,28.037a17.233,17.233,0,0,0-2.548-5.66,11.492,11.492,0,0,0-4.131-3.6,12.127,12.127,0,0,0-5.625-1.266,13.788,13.788,0,0,0-3.551.422,12.128,12.128,0,0,0-2.953,1.213,13.32,13.32,0,0,0-2.549,1.916,24.68,24.68,0,0,0-2.268,2.5l-0.21-5.273h-7.418V67.957h8.578V54a21.351,21.351,0,0,0,5.1.633,22.789,22.789,0,0,0,7.348-1.143,15.551,15.551,0,0,0,5.853-3.516,16.2,16.2,0,0,0,3.868-5.959,23.552,23.552,0,0,0,1.388-8.508A29.239,29.239,0,0,0,252.9,28.037Zm-8.753,12.832a11.223,11.223,0,0,1-1.811,3.779,8.2,8.2,0,0,1-2.848,2.391,8.106,8.106,0,0,1-3.709.844,18.656,18.656,0,0,1-3.041-.246A13.185,13.185,0,0,1,230.223,47V31.395a30.329,30.329,0,0,1,4.2-4.781,6.225,6.225,0,0,1,4.166-1.758,5.443,5.443,0,0,1,2.619.615,5.08,5.08,0,0,1,1.934,1.951,11.02,11.02,0,0,1,1.212,3.41,25.6,25.6,0,0,1,.422,5.027A18.4,18.4,0,0,1,244.145,40.869ZM290.129,39.8a7.462,7.462,0,0,0-1.846-2.883,12.314,12.314,0,0,0-3.392-2.268,33.884,33.884,0,0,0-5.2-1.881q-2.744-.773-4.413-1.424a15.091,15.091,0,0,1-2.6-1.248,3.373,3.373,0,0,1-1.248-1.231,3.178,3.178,0,0,1-.317-1.441,2.932,2.932,0,0,1,1.6-2.637,8.248,8.248,0,0,1,4.236-.949,35.832,35.832,0,0,1,5.326.4,36.73,36.73,0,0,1,5.749,1.389v-7q-2-.422-4.606-0.773a45.146,45.146,0,0,0-5.976-.352,24.666,24.666,0,0,0-6.821.844,15.047,15.047,0,0,0-4.869,2.3,9.77,9.77,0,0,0-2.935,3.393,8.934,8.934,0,0,0-.985,4.113,10.763,10.763,0,0,0,.651,3.92,8.191,8.191,0,0,0,1.951,2.935,11.9,11.9,0,0,0,3.287,2.2,29.912,29.912,0,0,0,4.623,1.67q2.847,0.809,4.605,1.459a14.858,14.858,0,0,1,2.725,1.266,3.646,3.646,0,0,1,1.318,1.283,3.127,3.127,0,0,1,.352,1.477,3.215,3.215,0,0,1-1.67,2.795,9.473,9.473,0,0,1-5.045,1.072,33.764,33.764,0,0,1-6.2-.615,33.012,33.012,0,0,1-6.592-1.986v7.734a47.117,47.117,0,0,0,5.977,1.072,61.736,61.736,0,0,0,7.1.369,27.166,27.166,0,0,0,5.783-.615,16.4,16.4,0,0,0,5.063-1.969,10.726,10.726,0,0,0,3.586-3.516,9.647,9.647,0,0,0,1.353-5.221A11.209,11.209,0,0,0,290.129,39.8Z" transform="translate(-16 -17.5)" fill="#ffffff"/>
  <g id="squares">
    <rect id="square_default" data-name="square default" y="5.5" width="31" height="31" fill="#ffffff"/>
    <rect id="square_dynamic" data-name="square dynamic" class="cls-2" x="36" y="5.5" width="31" height="31"/>
  </g>
</svg>
