<svg width="260" height="71" viewBox="0 0 260 71" fill="none" xmlns="http://www.w3.org/2000/svg">
<rect width="56" height="56" fill="#343434"/>
<rect x="68" width="56" height="56" fill="#343434"/>
<rect x="136" width="124" height="56" fill="#343434"/>
<path d="M29.8914 56C29.1714 56 28.6057 55.82 28.1943 55.46C27.8343 55.1 27.5514 54.6371 27.3457 54.0714L16.3143 18.3543C16.2114 18.0971 16.16 17.84 16.16 17.5829C16.16 17.12 16.3143 16.7343 16.6229 16.4257C16.9829 16.0657 17.3943 15.8857 17.8571 15.8857H24.6457C25.3143 15.8857 25.8286 16.0657 26.1886 16.4257C26.5486 16.7857 26.78 17.12 26.8829 17.4286L33.9029 41.2657L41.3857 17.5829C41.4886 17.2229 41.72 16.8629 42.08 16.5029C42.4914 16.0914 43.0571 15.8857 43.7771 15.8857H48.1743C48.8943 15.8857 49.4343 16.0914 49.7943 16.5029C50.2057 16.8629 50.4629 17.2229 50.5657 17.5829L58.0486 41.2657L65.0686 17.4286C65.12 17.12 65.3257 16.7857 65.6857 16.4257C66.0971 16.0657 66.6114 15.8857 67.2286 15.8857H74.0171C74.48 15.8857 74.8657 16.0657 75.1743 16.4257C75.5343 16.7343 75.7143 17.12 75.7143 17.5829C75.7143 17.84 75.6886 18.0971 75.6371 18.3543L64.5286 54.0714C64.3743 54.6371 64.0914 55.1 63.68 55.46C63.32 55.82 62.78 56 62.06 56H56.12C55.4 56 54.8343 55.82 54.4229 55.46C54.0114 55.1 53.7029 54.6371 53.4971 54.0714L46.0143 31.2371L38.3771 54.0714C38.2229 54.6371 37.94 55.1 37.5286 55.46C37.1171 55.82 36.5514 56 35.8314 56H29.8914ZM99.5864 56.7714C93.6721 56.7714 88.9664 55.1257 85.4692 51.8343C82.0235 48.5429 80.1978 43.76 79.9921 37.4857C79.9921 37.0743 79.9921 36.5343 79.9921 35.8657C79.9921 35.1457 79.9921 34.58 79.9921 34.1686C80.1978 30.2086 81.0978 26.8143 82.6921 23.9857C84.2864 21.1057 86.5235 18.92 89.4035 17.4286C92.2835 15.8857 95.6521 15.1143 99.5092 15.1143C103.829 15.1143 107.429 16.0143 110.309 17.8143C113.241 19.5629 115.426 21.98 116.866 25.0657C118.358 28.1 119.104 31.5971 119.104 35.5571V37.3314C119.104 37.8457 118.898 38.2829 118.486 38.6429C118.126 39.0029 117.689 39.1829 117.175 39.1829H91.9492C91.9492 39.2343 91.9492 39.3371 91.9492 39.4914C91.9492 39.5943 91.9492 39.6971 91.9492 39.8C92.0007 41.4457 92.3092 42.9629 92.875 44.3514C93.4921 45.6886 94.3407 46.7686 95.4207 47.5914C96.5521 48.4143 97.8892 48.8257 99.4321 48.8257C100.718 48.8257 101.772 48.6457 102.595 48.2857C103.418 47.9257 104.086 47.4886 104.601 46.9743C105.166 46.46 105.578 46.0229 105.835 45.6629C106.298 45.1486 106.658 44.84 106.915 44.7371C107.224 44.5829 107.686 44.5057 108.304 44.5057H116.326C116.841 44.5057 117.252 44.66 117.561 44.9686C117.921 45.2257 118.075 45.6114 118.024 46.1257C117.972 46.9486 117.535 47.9771 116.712 49.2114C115.941 50.3943 114.784 51.5771 113.241 52.76C111.698 53.8914 109.769 54.8429 107.455 55.6143C105.192 56.3857 102.569 56.7714 99.5864 56.7714ZM91.9492 32.1629H107.069V32.0086C107.069 30.1571 106.761 28.5629 106.144 27.2257C105.578 25.8371 104.729 24.7571 103.598 23.9857C102.466 23.2143 101.104 22.8286 99.5092 22.8286C97.915 22.8286 96.5521 23.2143 95.4207 23.9857C94.2892 24.7571 93.415 25.8371 92.7978 27.2257C92.2321 28.5629 91.9492 30.1571 91.9492 32.0086V32.1629ZM128.743 70.6571C128.178 70.6571 127.715 70.4771 127.355 70.1171C126.995 69.7571 126.815 69.2943 126.815 68.7286V17.8143C126.815 17.2486 126.995 16.7857 127.355 16.4257C127.715 16.0657 128.178 15.8857 128.743 15.8857H136.072C136.638 15.8857 137.101 16.0657 137.461 16.4257C137.821 16.7857 138.001 17.2486 138.001 17.8143V20.7457C139.235 19.1 140.829 17.7629 142.783 16.7343C144.738 15.6543 147.181 15.1143 150.112 15.1143C152.786 15.1143 155.101 15.5514 157.055 16.4257C159.061 17.2486 160.732 18.4571 162.069 20.0514C163.458 21.5943 164.512 23.4714 165.232 25.6829C166.003 27.8943 166.441 30.3886 166.543 33.1657C166.595 34.1429 166.621 35.0686 166.621 35.9429C166.621 36.8171 166.595 37.7686 166.543 38.7971C166.492 41.42 166.081 43.8371 165.309 46.0486C164.589 48.26 163.535 50.1629 162.146 51.7571C160.758 53.3514 159.061 54.5857 157.055 55.46C155.101 56.3343 152.786 56.7714 150.112 56.7714C147.489 56.7714 145.201 56.3086 143.246 55.3829C141.343 54.4057 139.775 53.0943 138.541 51.4486V68.7286C138.541 69.2943 138.361 69.7571 138.001 70.1171C137.641 70.4771 137.203 70.6571 136.689 70.6571H128.743ZM146.641 47.5143C148.595 47.5143 150.138 47.1029 151.269 46.28C152.401 45.4057 153.198 44.2743 153.661 42.8857C154.175 41.4971 154.483 39.98 154.586 38.3343C154.689 36.74 154.689 35.1457 154.586 33.5514C154.483 31.9057 154.175 30.3886 153.661 29C153.198 27.6114 152.401 26.5057 151.269 25.6829C150.138 24.8086 148.595 24.3714 146.641 24.3714C144.738 24.3714 143.195 24.8086 142.012 25.6829C140.829 26.5571 139.981 27.6629 139.466 29C138.952 30.3371 138.643 31.7771 138.541 33.32C138.489 34.2457 138.463 35.1971 138.463 36.1743C138.463 37.1514 138.489 38.1286 138.541 39.1057C138.592 40.5457 138.901 41.9086 139.466 43.1943C140.083 44.4286 140.958 45.4571 142.089 46.28C143.272 47.1029 144.789 47.5143 146.641 47.5143ZM176.732 70.6571C176.166 70.6571 175.703 70.4771 175.343 70.1171C174.983 69.7571 174.803 69.2943 174.803 68.7286V17.8143C174.803 17.2486 174.983 16.7857 175.343 16.4257C175.703 16.0657 176.166 15.8857 176.732 15.8857H184.06C184.626 15.8857 185.089 16.0657 185.449 16.4257C185.809 16.7857 185.989 17.2486 185.989 17.8143V20.7457C187.223 19.1 188.817 17.7629 190.772 16.7343C192.726 15.6543 195.169 15.1143 198.1 15.1143C200.774 15.1143 203.089 15.5514 205.043 16.4257C207.049 17.2486 208.72 18.4571 210.057 20.0514C211.446 21.5943 212.5 23.4714 213.22 25.6829C213.992 27.8943 214.429 30.3886 214.532 33.1657C214.583 34.1429 214.609 35.0686 214.609 35.9429C214.609 36.8171 214.583 37.7686 214.532 38.7971C214.48 41.42 214.069 43.8371 213.297 46.0486C212.577 48.26 211.523 50.1629 210.134 51.7571C208.746 53.3514 207.049 54.5857 205.043 55.46C203.089 56.3343 200.774 56.7714 198.1 56.7714C195.477 56.7714 193.189 56.3086 191.234 55.3829C189.332 54.4057 187.763 53.0943 186.529 51.4486V68.7286C186.529 69.2943 186.349 69.7571 185.989 70.1171C185.629 70.4771 185.192 70.6571 184.677 70.6571H176.732ZM194.629 47.5143C196.583 47.5143 198.126 47.1029 199.257 46.28C200.389 45.4057 201.186 44.2743 201.649 42.8857C202.163 41.4971 202.472 39.98 202.574 38.3343C202.677 36.74 202.677 35.1457 202.574 33.5514C202.472 31.9057 202.163 30.3886 201.649 29C201.186 27.6114 200.389 26.5057 199.257 25.6829C198.126 24.8086 196.583 24.3714 194.629 24.3714C192.726 24.3714 191.183 24.8086 190 25.6829C188.817 26.5571 187.969 27.6629 187.454 29C186.94 30.3371 186.632 31.7771 186.529 33.32C186.477 34.2457 186.452 35.1971 186.452 36.1743C186.452 37.1514 186.477 38.1286 186.529 39.1057C186.58 40.5457 186.889 41.9086 187.454 43.1943C188.072 44.4286 188.946 45.4571 190.077 46.28C191.26 47.1029 192.777 47.5143 194.629 47.5143ZM238.606 56.7714C235.417 56.7714 232.666 56.4114 230.351 55.6914C228.088 54.92 226.237 53.9943 224.797 52.9143C223.408 51.8343 222.354 50.7543 221.634 49.6743C220.966 48.5429 220.606 47.5914 220.554 46.82C220.503 46.2543 220.683 45.7914 221.094 45.4314C221.506 45.0714 221.917 44.8914 222.328 44.8914H229.811C229.966 44.8914 230.12 44.9171 230.274 44.9686C230.428 45.02 230.583 45.1486 230.737 45.3543C231.406 45.8171 232.1 46.3571 232.82 46.9743C233.54 47.54 234.363 48.0286 235.288 48.44C236.266 48.8514 237.474 49.0571 238.914 49.0571C240.611 49.0571 242.051 48.7229 243.234 48.0543C244.417 47.3343 245.008 46.3314 245.008 45.0457C245.008 44.12 244.726 43.3486 244.16 42.7314C243.646 42.1143 242.643 41.5486 241.151 41.0343C239.66 40.52 237.448 39.9543 234.517 39.3371C231.74 38.72 229.374 37.8971 227.42 36.8686C225.466 35.84 224 34.5543 223.023 33.0114C222.046 31.4171 221.557 29.5143 221.557 27.3029C221.557 25.2971 222.174 23.3686 223.408 21.5171C224.694 19.6657 226.571 18.1486 229.04 16.9657C231.508 15.7314 234.594 15.1143 238.297 15.1143C241.126 15.1143 243.594 15.4743 245.703 16.1943C247.863 16.8629 249.663 17.7371 251.103 18.8171C252.543 19.8457 253.623 20.9257 254.343 22.0571C255.114 23.1371 255.526 24.0886 255.577 24.9114C255.628 25.4257 255.474 25.8629 255.114 26.2229C254.754 26.5829 254.343 26.7629 253.88 26.7629H247.014C246.757 26.7629 246.526 26.7371 246.32 26.6857C246.114 26.5829 245.934 26.4543 245.78 26.3C245.163 25.8886 244.52 25.4257 243.851 24.9114C243.234 24.3457 242.488 23.8571 241.614 23.4457C240.74 23.0343 239.608 22.8286 238.22 22.8286C236.523 22.8286 235.211 23.2143 234.286 23.9857C233.411 24.7057 232.974 25.6314 232.974 26.7629C232.974 27.4829 233.206 28.1514 233.668 28.7686C234.131 29.3857 235.083 29.9514 236.523 30.4657C237.963 30.98 240.148 31.52 243.08 32.0857C246.577 32.7029 249.354 33.6286 251.411 34.8629C253.468 36.0971 254.934 37.5371 255.808 39.1829C256.734 40.7771 257.197 42.5 257.197 44.3514C257.197 46.7686 256.477 48.9286 255.037 50.8314C253.597 52.6829 251.488 54.1486 248.711 55.2286C245.986 56.2571 242.617 56.7714 238.606 56.7714Z" fill="white"/>
</svg>
